<svg width="30" height="30" viewBox="0 0 30 30" fill="none" xmlns="http://www.w3.org/2000/svg">
<path d="M16.3125 20.3127H13.9625C12.3 20.3127 10.9375 18.9127 10.9375 17.1877C10.9375 16.6752 11.3625 16.2502 11.875 16.2502C12.3875 16.2502 12.8125 16.6752 12.8125 17.1877C12.8125 17.8752 13.325 18.4377 13.9625 18.4377H16.3125C16.8 18.4377 17.1875 18.0002 17.1875 17.4627C17.1875 16.7877 17 16.6877 16.575 16.5377L12.8125 15.2252C12.0125 14.9502 10.9375 14.3627 10.9375 12.5252C10.9375 10.9628 12.175 9.67529 13.6875 9.67529H16.0375C17.7 9.67529 19.0625 11.0753 19.0625 12.8002C19.0625 13.3127 18.6375 13.7377 18.125 13.7377C17.6125 13.7377 17.1875 13.3127 17.1875 12.8002C17.1875 12.1128 16.675 11.5503 16.0375 11.5503H13.6875C13.2 11.5503 12.8125 11.9878 12.8125 12.5252C12.8125 13.2002 13 13.3002 13.425 13.4502L17.1875 14.7627C17.9875 15.0377 19.0625 15.6252 19.0625 17.4627C19.0625 19.0377 17.825 20.3127 16.3125 20.3127Z" fill="white"/>
<path d="M15 21.5625C14.4875 21.5625 14.0625 21.1375 14.0625 20.625V9.375C14.0625 8.8625 14.4875 8.4375 15 8.4375C15.5125 8.4375 15.9375 8.8625 15.9375 9.375V20.625C15.9375 21.1375 15.5125 21.5625 15 21.5625Z" fill="white"/>
<path d="M15 28.4375C7.5875 28.4375 1.5625 22.4125 1.5625 15C1.5625 7.5875 7.5875 1.5625 15 1.5625C15.5125 1.5625 15.9375 1.9875 15.9375 2.5C15.9375 3.0125 15.5125 3.4375 15 3.4375C8.625 3.4375 3.4375 8.625 3.4375 15C3.4375 21.375 8.625 26.5625 15 26.5625C21.375 26.5625 26.5625 21.375 26.5625 15C26.5625 14.4875 26.9875 14.0625 27.5 14.0625C28.0125 14.0625 28.4375 14.4875 28.4375 15C28.4375 22.4125 22.4125 28.4375 15 28.4375Z" fill="white"/>
<path d="M26.25 9.6875H21.25C20.7375 9.6875 20.3125 9.2625 20.3125 8.75V3.75C20.3125 3.2375 20.7375 2.8125 21.25 2.8125C21.7625 2.8125 22.1875 3.2375 22.1875 3.75V7.8125H26.25C26.7625 7.8125 27.1875 8.2375 27.1875 8.75C27.1875 9.2625 26.7625 9.6875 26.25 9.6875Z" fill="white"/>
<path d="M21.2494 9.68804C21.0119 9.68804 20.7744 9.60054 20.5869 9.41304C20.2244 9.05054 20.2244 8.45054 20.5869 8.08804L26.8369 1.83804C27.1994 1.47554 27.7994 1.47554 28.1619 1.83804C28.5244 2.20054 28.5244 2.80054 28.1619 3.16304L21.9119 9.41304C21.7244 9.60054 21.4869 9.68804 21.2494 9.68804Z" fill="white"/>
</svg>
